<?xml version="1.0" standalone="no"?>
<!DOCTYPE svg PUBLIC "-//W3C//DTD SVG 20010904//EN"
 "http://www.w3.org/TR/2001/REC-SVG-20010904/DTD/svg10.dtd">
<svg version="1.0" xmlns="http://www.w3.org/2000/svg"
 width="984.000000pt" height="984.000000pt" viewBox="0 0 984.000000 984.000000"
 preserveAspectRatio="xMidYMid meet">
<metadata>
Created by potrace 1.14, written by Peter Selinger 2001-2017
</metadata>
<g transform="translate(0.000000,984.000000) scale(0.100000,-0.100000)"
fill="#000000" stroke="none">
<path d="M4785 9753 c-44 -47 -100 -107 -125 -134 -25 -26 -97 -102 -160 -169
-63 -67 -126 -134 -140 -149 -14 -14 -42 -45 -62 -68 l-37 -42 2 -186 c1 -111
-2 -185 -7 -185 -6 0 -6 -4 0 -10 5 -5 8 -25 6 -44 l-4 -33 -997 0 -997 0 -44
-22 c-25 -11 -65 -34 -90 -51 -25 -16 -52 -33 -60 -37 -15 -8 -160 -95 -205
-123 -54 -34 -191 -115 -200 -119 -5 -2 -16 -10 -23 -18 -7 -7 -20 -13 -28
-13 -8 0 -14 -4 -14 -10 0 -5 -6 -10 -14 -10 -8 0 -21 -6 -28 -13 -7 -7 -71
-47 -143 -90 -71 -43 -139 -83 -150 -90 -11 -7 -39 -24 -63 -39 -24 -16 -44
-28 -46 -28 -1 0 -65 -38 -142 -84 -76 -47 -197 -120 -268 -163 -71 -43 -143
-86 -160 -95 -17 -10 -42 -26 -55 -35 -13 -10 -27 -20 -31 -23 -16 -11 -40
-71 -40 -100 0 -38 25 -99 48 -116 9 -7 55 -39 102 -71 47 -31 87 -61 88 -65
2 -4 7 -8 12 -8 10 0 164 -103 168 -112 2 -5 8 -8 14 -8 13 0 112 -69 116 -82
2 -4 9 -8 15 -8 12 0 90 -51 95 -62 2 -5 9 -8 17 -8 7 0 18 -7 26 -16 7 -8 29
-24 48 -34 20 -10 50 -30 66 -44 17 -14 33 -26 37 -26 9 0 94 -58 122 -82 11
-10 25 -18 32 -18 7 0 17 -6 21 -12 9 -14 36 -33 68 -47 11 -5 30 -19 42 -30
12 -12 25 -21 28 -21 4 0 21 -11 39 -25 18 -14 38 -25 44 -25 7 0 12 -4 12
-10 0 -5 6 -10 14 -10 8 0 16 -3 18 -8 4 -11 126 -92 137 -92 5 0 11 -4 13 -9
5 -15 339 -231 348 -226 5 3 11 2 13 -2 3 -5 453 -8 1001 -7 819 0 996 -2
1000 -13 3 -7 1 -13 -5 -13 -6 0 -7 -5 -4 -10 10 -16 11 -150 2 -150 -5 0 -5
-5 -2 -10 10 -16 11 -150 2 -150 -5 0 -5 -5 -2 -10 10 -16 11 -150 2 -150 -5
0 -5 -5 -2 -11 6 -9 8 -67 6 -187 l-1 -28 -933 0 -932 0 -37 -22 c-20 -12 -44
-35 -54 -50 -18 -26 -19 -73 -19 -1152 l0 -1125 23 -31 c13 -16 37 -39 54 -49
30 -17 77 -18 965 -18 l933 0 0 -31 c1 -17 2 -64 3 -104 1 -39 -2 -72 -6 -72
-5 0 -5 -5 -2 -10 10 -16 11 -230 2 -230 -5 0 -5 -5 -2 -10 10 -16 11 -310 2
-310 -5 0 -5 -5 -2 -10 9 -15 11 -470 2 -470 -5 0 -5 -5 -2 -10 9 -15 11 -630
2 -630 -4 0 -3 -9 3 -19 8 -16 6 -21 -8 -25 -10 -3 -270 -7 -577 -9 -308 -1
-570 -6 -583 -9 -60 -18 -132 -61 -179 -109 -29 -29 -53 -58 -53 -66 0 -7 -4
-13 -8 -13 -8 0 -36 -71 -48 -120 -3 -14 -7 -166 -8 -339 -1 -352 2 -374 69
-443 72 -73 -87 -68 2055 -66 1861 3 1926 4 1960 22 19 10 49 34 67 53 59 63
61 81 61 508 0 218 -5 403 -10 425 -6 22 -28 57 -51 82 -76 81 -45 77 -758 78
-347 0 -635 2 -639 5 -4 2 -6 437 -6 967 l1 963 1015 1 c766 1 1021 4 1038 13
12 6 22 9 22 5 0 -4 10 1 23 12 35 30 85 64 96 64 5 0 11 3 13 8 2 4 57 43
123 86 66 44 130 88 143 99 12 11 22 17 22 13 0 -4 12 5 27 19 15 14 33 25 40
25 7 0 13 5 13 10 0 6 6 10 13 10 6 0 25 11 41 25 16 14 35 25 41 25 7 0 15 7
19 15 3 8 10 15 15 15 5 0 55 32 111 70 56 39 105 70 111 70 5 0 9 4 9 9 0 5
9 13 20 16 11 3 26 12 32 18 17 17 61 44 71 45 5 0 16 9 25 20 9 10 22 21 27
23 34 13 656 437 682 464 38 39 50 92 34 144 -12 40 -42 81 -59 81 -6 0 -12 3
-14 8 -1 4 -145 92 -318 197 -173 104 -353 213 -400 241 -47 29 -175 106 -285
173 -110 66 -216 130 -235 143 -19 12 -37 22 -40 23 -3 0 -16 8 -30 17 -14 9
-63 39 -110 67 -47 28 -89 54 -95 59 -5 4 -52 32 -104 62 l-94 54 -1019 0
c-1017 0 -1019 0 -1023 21 -2 11 -3 175 -2 365 l2 345 950 2 c523 2 955 4 962
5 19 2 78 61 90 90 9 20 12 309 12 1131 0 931 -2 1107 -14 1130 -17 33 -31 47
-69 72 -27 18 -68 19 -980 19 l-951 1 -1 230 -1 231 -58 54 c-31 30 -79 75
-105 100 -26 25 -125 119 -220 210 -95 91 -192 183 -215 205 -86 84 -70 85
-160 -12z m2469 -2228 c1 -495 0 -907 -2 -916 -3 -14 -246 -15 -2461 -15
l-2458 1 -74 50 c-41 28 -76 52 -79 55 -3 3 -52 37 -110 76 -251 168 -295 199
-298 206 -2 4 -10 8 -18 8 -8 0 -14 5 -14 10 0 6 -6 10 -13 10 -8 0 -22 9 -32
20 -10 11 -24 20 -32 20 -7 0 -13 5 -13 10 0 6 -6 10 -13 10 -7 0 -20 9 -30
20 -9 11 -23 20 -31 20 -8 0 -16 3 -18 8 -3 8 -21 21 -173 122 -60 41 -111 78
-113 82 -2 4 -9 8 -15 8 -7 1 -28 14 -47 30 -19 17 -38 30 -43 30 -5 0 -26 14
-47 30 -21 17 -41 30 -44 30 -4 0 -12 5 -19 11 -7 6 -40 30 -74 53 l-63 43 43
28 c23 16 54 36 69 47 15 10 30 18 34 18 3 0 26 14 51 30 24 17 46 30 48 30 2
0 31 18 64 40 33 22 62 40 65 40 3 0 55 32 115 70 61 39 115 70 121 70 5 0 10
5 10 10 0 6 4 10 10 10 8 0 63 32 120 70 8 5 69 43 135 83 353 217 492 302
511 311 15 8 716 11 2479 11 l2459 0 0 -900z m285 -2299 c12 -11 21 -16 21
-12 0 4 15 -4 33 -18 19 -15 37 -26 41 -26 4 0 35 -18 68 -41 34 -22 78 -49
97 -60 20 -11 48 -27 63 -37 37 -24 337 -208 373 -229 17 -10 32 -21 33 -25 2
-5 8 -8 14 -8 5 0 41 -20 79 -45 38 -25 72 -45 75 -45 3 0 20 -11 38 -25 18
-14 36 -25 40 -25 4 0 19 -9 34 -19 15 -10 102 -65 195 -121 92 -56 169 -105
172 -109 2 -4 -14 -18 -36 -32 -22 -13 -46 -29 -52 -34 -7 -6 -39 -28 -72 -50
-33 -21 -62 -41 -65 -45 -3 -3 -30 -21 -60 -40 -30 -19 -59 -40 -63 -47 -4 -7
-12 -13 -17 -13 -9 0 -98 -58 -110 -71 -3 -3 -23 -16 -45 -29 -22 -13 -42 -26
-45 -30 -3 -3 -32 -23 -65 -45 -33 -22 -62 -42 -65 -45 -3 -3 -12 -9 -22 -15
-9 -5 -47 -31 -85 -57 -37 -25 -129 -87 -203 -137 -74 -50 -139 -95 -145 -99
-5 -4 -66 -46 -134 -92 l-124 -85 -2459 0 -2458 0 -1 30 c-4 145 -1 1784 4
1792 4 6 890 9 2465 9 2404 -1 2460 -1 2481 -20z"/>
</g>
</svg>
